<?xml version="1.0" encoding="utf-8"?>
<!-- Generator: Adobe Illustrator 19.2.0, SVG Export Plug-In . SVG Version: 6.00 Build 0)  -->
<svg version="1.1" id="Layer_1" xmlns="http://www.w3.org/2000/svg" xmlns:xlink="http://www.w3.org/1999/xlink" x="0px" y="0px"
	 viewBox="0 0 192.7 42.7" enable-background="new 0 0 192.7 42.7" xml:space="preserve">
<g>
	<path fill="#283649" d="M7.2,13.4H5.5v-2.2h7.4c5.6,0,9.2,3.3,9.2,9.1c0,5.8-3.7,9.2-9.2,9.2H8.9c-1.2,0-1.7-0.5-1.7-1.7V13.4z
		 M10.4,27.2h2.4c4.1,0,6.7-2.4,6.7-6.9c0-4.5-2.7-6.9-6.7-6.9H9.8v13.2C9.8,27,10,27.2,10.4,27.2z"/>
	<path fill="#283649" d="M24.7,27.5H25c0.3,0,0.5-0.1,0.6-0.4l3.8-10.5h2.5l3.8,10.5c0.1,0.3,0.3,0.4,0.6,0.4h0.3v2h-1.4
		c-0.9,0-1.2-0.2-1.5-1.1l-0.8-2.2h-4.3l-0.8,2.2c-0.3,0.8-0.6,1.1-1.5,1.1h-1.4V27.5z M32.2,24.2L31.1,21c-0.2-0.7-0.5-1.9-0.5-1.9
		h0c0,0-0.3,1.2-0.5,1.9L29,24.2H32.2z"/>
	<path fill="#283649" d="M40.9,18.6h-2c-0.3,0-0.4,0.1-0.4,0.4v0.8h-2.1v-2c0-0.9,0.3-1.2,1.2-1.2h9c0.9,0,1.2,0.3,1.2,1.2v2h-2.1
		V19c0-0.3-0.1-0.4-0.4-0.4h-2v10.8h-2.4V18.6z"/>
	<path fill="#283649" d="M47.6,27.5h0.3c0.3,0,0.5-0.1,0.6-0.4l3.8-10.5h2.5l3.8,10.5c0.1,0.3,0.3,0.4,0.6,0.4h0.3v2H58
		c-0.9,0-1.2-0.2-1.5-1.1l-0.8-2.2h-4.3l-0.8,2.2c-0.3,0.8-0.6,1.1-1.5,1.1h-1.4V27.5z M55.1,24.2L54,21c-0.2-0.7-0.5-1.9-0.5-1.9h0
		c0,0-0.3,1.2-0.5,1.9l-1.1,3.2H55.1z"/>
	<path fill="#283649" d="M63.9,14c0-0.4-0.2-0.6-0.6-0.6h-1.1v-2.2h2.6c1.2,0,1.7,0.5,1.7,1.7v13.8c0,0.4,0.2,0.6,0.6,0.6h5
		c0.4,0,0.6-0.2,0.6-0.6v-1.2h2.4v2.3c0,1.2-0.5,1.7-1.7,1.7h-7.8c-1.2,0-1.7-0.5-1.7-1.7V14z"/>
	<path fill="#283649" d="M83.9,16.4c3.8,0,6.6,2.9,6.6,6.6c0,3.8-2.9,6.7-6.6,6.7c-3.8,0-6.6-3-6.6-6.7
		C77.3,19.3,80.2,16.4,83.9,16.4z M83.9,27.5c2.3,0,4.2-2,4.2-4.5c0-2.5-1.9-4.3-4.2-4.3c-2.3,0-4.2,1.9-4.2,4.3
		C79.8,25.5,81.6,27.5,83.9,27.5z"/>
	<path fill="#283649" d="M92.1,27.5h0.3c0.3,0,0.5-0.1,0.6-0.4l3.8-10.5h2.5l3.8,10.5c0.1,0.3,0.3,0.4,0.6,0.4h0.3v2h-1.4
		c-0.9,0-1.2-0.2-1.5-1.1l-0.8-2.2h-4.3L95,28.4c-0.3,0.8-0.6,1.1-1.5,1.1h-1.4V27.5z M99.6,24.2L98.5,21c-0.2-0.7-0.5-1.9-0.5-1.9
		h0c0,0-0.3,1.2-0.5,1.9l-1.1,3.2H99.6z"/>
	<path fill="#283649" d="M106.9,18.6h-1.2v-2h5.2c4,0,6.6,2.4,6.6,6.4s-2.6,6.4-6.6,6.4h-2.8c-0.9,0-1.2-0.4-1.2-1.2V18.6z
		 M109.7,27.5h1.2c2.6,0,4.2-1.5,4.2-4.4c0-2.9-1.7-4.4-4.2-4.4h-1.6v8.4C109.3,27.3,109.4,27.5,109.7,27.5z"/>
	<path fill="#283649" d="M120.8,18.6h-1.2v-2h7.8c0.9,0,1.2,0.4,1.2,1.2v2h-2.2V19c0-0.3-0.1-0.4-0.4-0.4h-2.9V22h4.2v2h-4.2v3.1
		c0,0.3,0.1,0.4,0.4,0.4h3c0.3,0,0.4-0.1,0.4-0.4v-0.8h2.2v2c0,0.9-0.4,1.2-1.2,1.2h-5.8c-0.9,0-1.2-0.4-1.2-1.2V18.6z"/>
	<path fill="#283649" d="M132.3,18.6h-1.2v-2h5.8c2.4,0,4,1.4,4,3.9c0,2.3-1.6,3.3-2.1,3.4v0c0,0,0.4,0.2,0.6,0.7l1.2,2.5
		c0.2,0.4,0.5,0.4,0.9,0.4h0.2v2h-1.2c-1,0-1.4-0.1-1.8-1l-1.6-3.2c-0.3-0.5-0.5-0.6-1.2-0.6h-1.2v4.8h-2.4V18.6z M136.6,22.6
		c1.2,0,1.9-0.7,1.9-2c0-1.3-0.7-2-1.9-2h-1.9v4H136.6z"/>
</g>
<path fill="#FAA946" d="M163.3,28.9c-1.5,0-3,0-4.4,0c0-0.6,0.1-1.2,0-1.7c-0.4-2.5-2.3-4.1-4.9-4.1c-0.9,0-1.8,0-2.7,0
	c0-0.9-0.1-1.8,0-2.7c0.1-0.5,0.4-0.9,1.1-0.9c0.5,0,1,0,1.6,0c-0.2-0.8,0.4-1.6-0.5-2.2c-0.2-0.2-0.1-0.9-0.1-1.4
	c0.9,0.1,1.6,0.4,1.9,1.2c0.2,0.7,0.2,1.5,0.4,2.3c0.5,0,1.1,0,1.7,0c0-3,0-5.9,0-8.9c0.6,0,1,0,1.5,0c1.8,0,3.6,0,5.5,0
	c0.9,0,1.6,0.5,1.9,1.4c-0.2,0-0.4,0-0.7,0.1c0,0.2,0,0.3,0.1,0.5c0.5,1.7,0.9,3.4,1.4,5.1c0.1,0.3,0.2,0.5,0.6,0.5
	c0.2,0,0.4,0.1,0.5,0.3c0.4,0.7,0.8,1.4,1.1,2.1c0.2,0.4,0.2,0.9,0.3,1.4c-2.1-0.3-3.8,0.2-5.1,1.8C163,25.2,162.7,26.9,163.3,28.9z
	 M158.8,12c0,2.5,0,5,0,7.5c0.2,0,0.3,0,0.4,0c1.1-0.2,2,0.2,2.6,1.2c0.2,0.3,0.6,0.4,0.9,0.5c0.8,0.1,1.5,0,2.3,0
	c0.2,0,0.5-0.2,0.5-0.3c0-0.8,0.2-1.7,0-2.5c-0.5-2-1.1-3.9-1.6-5.9c0-0.1-0.2-0.4-0.3-0.4C162,12,160.4,12,158.8,12z M161.9,24
	c0-0.5,0-0.9,0-1.4c-0.8,0-1.6,0-2.5,0c0,0.5,0,0.9,0,1.4C160.2,24,161,24,161.9,24z"/>
<path fill="#283649" d="M174.7,26.6c2.6,0,5.1,0,7.6,0c0.2,0.6,0.1,0.9-0.5,1.1c-1.6,0.6-3.2,0.8-4.9,0.7c-1.2-0.1-2.3,0-3.5,0
	c0.4-2.1,0-3.9-1.5-5.3c-0.2-0.2-0.2-0.5-0.3-0.7c0-2.3,0-4.5,0-6.8c0-0.7-0.1-1.2-0.5-1.7c-0.8-1.1-0.8-1.6-0.6-3.3
	c1,0,1.9,0,2.9,0c0,3.1,0,6.1,0,9.2c0.5,0,0.9,0,1.4,0C174.7,22,174.7,24.3,174.7,26.6z"/>
<path fill="#283649" d="M168.2,30.8c-2.1,0-3.7-1.7-3.7-3.8c0-2.1,1.7-3.7,3.8-3.7c2.1,0,3.7,1.7,3.7,3.8
	C172.1,29.1,170.4,30.8,168.2,30.8z M168.3,28.7c0.9,0,1.7-0.8,1.7-1.7c0-0.9-0.8-1.7-1.7-1.7c-0.9,0-1.7,0.8-1.7,1.7
	C166.6,28,167.3,28.7,168.3,28.7z"/>
<path fill="#283649" d="M154.4,30.8c-1.7,0-3.1-1.3-3.1-3c0-1.7,1.3-3.1,3-3.2c1.7,0,3.1,1.3,3.1,2.9
	C157.5,29.4,156.2,30.7,154.4,30.8z M153.1,27.7c0,0.7,0.6,1.2,1.3,1.2c0.7,0,1.3-0.6,1.3-1.3c0-0.7-0.6-1.3-1.3-1.3
	C153.6,26.5,153.1,27,153.1,27.7z"/>
<path fill="#283649" d="M185.5,22.7H177c-0.3,0-0.6,0.3-0.6,0.6v1.3c0,0.3,0.3,0.6,0.6,0.6h8.6c0.3,0,0.6-0.3,0.6-0.6v-1.3
	C186.1,22.9,185.9,22.7,185.5,22.7z M184.5,24.5c-0.3,0-0.6-0.3-0.6-0.6s0.3-0.6,0.6-0.6c0.3,0,0.6,0.3,0.6,0.6
	S184.8,24.5,184.5,24.5z"/>
<path fill="#283649" d="M185.5,18.8H177c-0.3,0-0.6,0.3-0.6,0.6v1.3c0,0.3,0.3,0.6,0.6,0.6h8.6c0.3,0,0.6-0.3,0.6-0.6v-1.3
	C186.1,19.1,185.9,18.8,185.5,18.8z M184.5,20.7c-0.3,0-0.6-0.3-0.6-0.6s0.3-0.6,0.6-0.6c0.3,0,0.6,0.3,0.6,0.6
	S184.8,20.7,184.5,20.7z"/>
<path fill="#283649" d="M185.5,15H177c-0.3,0-0.6,0.3-0.6,0.6v1.3c0,0.3,0.3,0.6,0.6,0.6h8.6c0.3,0,0.6-0.3,0.6-0.6v-1.3
	C186.1,15.3,185.9,15,185.5,15z M184.5,16.8c-0.3,0-0.6-0.3-0.6-0.6s0.3-0.6,0.6-0.6c0.3,0,0.6,0.3,0.6,0.6S184.8,16.8,184.5,16.8z"
	/>
</svg>
